<svg xmlns="http://www.w3.org/2000/svg" xmlns:xlink="http://www.w3.org/1999/xlink" version="1.1" x="0px" y="0px" viewBox="0 0 100 125" style="enable-background:new 0 0 100 100;" xml:space="preserve"><g style="" display="none"><rect x="-586.251" y="-85.248" style="" width="1386.139" height="999.1" display="inline" fill="#EFC49A"/></g><g><path d="M50,95c24.853,0,45-20.147,45-45S74.853,5,50,5S5,25.147,5,50S25.147,95,50,95z M24.232,74.116   c0.956-1.065,1.945-2.155,2.541-3.329c2.339-4.545,1.82-9.844,1.358-14.54c-0.277-2.843-0.377-5.744-0.486-8.544   c-0.067-2.004-0.143-4.075-0.277-6.121c-0.294-4.385,0.662-8.762,2.775-12.653c4.117-7.572,12.158-12.343,20.686-12.343   c0.319,0,0.629,0.008,0.939,0.017c12.62,0.52,22.506,11.06,22.506,23.99v21.483c0,4.267-1.735,8.174-4.536,11.034   c-2.257,2.305-5.357,4.44-8.797,4.629c-4.107,0.226-6.413-3.731-10.356-3.731c-2.365,0-3.572,1.174-4.637,2.214   c-0.956,0.939-1.778,1.744-3.463,1.744c-1.685,0-2.516-0.805-3.471-1.744c-1.065-1.031-2.272-2.214-4.637-2.214   c-2.373,0-3.58,1.182-4.645,2.222c-0.956,0.931-1.778,1.736-3.463,1.744l-0.008,0.067h-0.034c-3.471-0.277-3.899-0.931-3.949-1.057   C22.086,76.498,23.377,75.064,24.232,74.116z"/><path d="M65.19,46.146c2.22,0,4.026-1.806,4.026-4.027v-5.031c0-2.221-1.806-4.027-4.026-4.027c-2.221,0-4.027,1.806-4.027,4.027   v5.031C61.163,44.339,62.97,46.146,65.19,46.146z"/><path d="M54.29,46.477c2.22,0,4.026-1.806,4.026-4.027v-5.032c0-2.22-1.806-4.027-4.026-4.027c-2.221,0-4.027,1.806-4.027,4.027   v5.032C50.263,44.67,52.069,46.477,54.29,46.477z"/></g><text x="0" y="115" fill="#000000" font-size="5px" font-weight="bold" font-family="'Helvetica Neue', Helvetica, Arial-Unicode, Arial, Sans-serif"></text><text x="0" y="120" fill="#000000" font-size="5px" font-weight="bold" font-family="'Helvetica Neue', Helvetica, Arial-Unicode, Arial, Sans-serif"></text></svg>